<?xml version="1.0" encoding="utf-8"?>
<!-- Generator: Adobe Illustrator 18.0.0, SVG Export Plug-In . SVG Version: 6.00 Build 0)  -->
<!DOCTYPE svg PUBLIC "-//W3C//DTD SVG 1.1//EN" "http://www.w3.org/Graphics/SVG/1.1/DTD/svg11.dtd">
<svg version="1.1" id="Warstwa_1" xmlns="http://www.w3.org/2000/svg" xmlns:xlink="http://www.w3.org/1999/xlink" x="0px" y="0px"
	 viewBox="0 0 97.3 23" enable-background="new 0 0 97.3 23" xml:space="preserve">
<g>
	<g>
		<linearGradient id="SVGID_1_" gradientUnits="userSpaceOnUse" x1="10.6632" y1="1.2617" x2="10.6632" y2="22.3356">
			<stop  offset="0" style="stop-color:#EC7D22"/>
			<stop  offset="0.1682" style="stop-color:#EA7127"/>
			<stop  offset="0.4748" style="stop-color:#E35035"/>
			<stop  offset="0.8826" style="stop-color:#D91B4A"/>
			<stop  offset="1" style="stop-color:#D60B51"/>
		</linearGradient>
		<path fill-rule="evenodd" clip-rule="evenodd" fill="url(#SVGID_1_)" d="M20.2,12C20.2,12.3,20.2,13.1,20.2,12c0-0.1,0-3.8,0-4.1
			c0-1.2-0.3-1.6-1.3-2.2c-1.3-0.7-2.6-1.4-3.9-2.2c-1.2-0.7-2.4-1.6-3.7-2.1C10.2,0.9,8.9,2.1,8,2.6C6.8,3.3,5.6,4,4.3,4.7
			c-1,0.6-2.6,1.1-3,2.2C1,8.1,1.3,9.8,1.3,11c0,1.6,0,3.2,0,4.8c0,1.5,0.9,1.9,2.1,2.6c1.3,0.7,2.5,1.5,3.8,2.2
			c1,0.5,2.4,1.7,3.5,1.7c1.1,0,2.5-1.2,3.5-1.7c1.3-0.7,2.6-1.5,3.8-2.2c1.2-0.7,2-1.1,2.1-2.5C20.2,14.6,20.2,13.3,20.2,12z
			 M20.2,11.9C20.2,11.9,20.2,11.9,20.2,11.9C20.2,11.9,20.2,11.9,20.2,11.9z"/>
	</g>
</g>
<g>
	
		<image overflow="visible" opacity="0.35" width="68" height="69" xlink:href="D4201DC8.png"  transform="matrix(0.24 0 0 0.24 4.9719 4.6498)">
	</image>
	<g>
		<path fill="#FFFFFF" d="M8.1,15.4c0-2.2,0-4.4,0-6.6c0-0.2,0-0.4,0-0.6C8.3,7.8,8.6,7.7,9,7.9c2,1,3.9,2.1,5.9,3.1
			c0.1,0.1,0.2,0.1,0.3,0.2c0,0,0.1,0.1,0.1,0.1c0.2,0.1,0.4,0.3,0.4,0.6c0,0.3-0.2,0.4-0.4,0.5c-1.9,1-3.9,2-5.8,3.1
			c-0.2,0.1-0.4,0.2-0.6,0.3C8.6,15.9,8.2,15.8,8.1,15.4z"/>
	</g>
</g>
<g opacity="0.9">
	<path fill="#3B3B3B" d="M25.2,8.1h2.5l1.3,5.2l1.3-5.2h2.5v7.1h-1.4V9.7H31l-1.4,5.2h-1.4l-1.4-5.2h-0.2v5.5h-1.4V8.1z"/>
	<path fill="#3B3B3B" d="M38.8,12.6c0,1.6-0.6,2.8-2.4,2.8c-1.8,0-2.4-1.1-2.4-2.8c0-1.6,0.6-2.7,2.4-2.7
		C38.3,9.9,38.8,11,38.8,12.6z M37.4,12.6c0-1-0.2-1.5-1-1.5c-0.8,0-1,0.5-1,1.5c0,1,0.2,1.6,1,1.6C37.2,14.2,37.4,13.6,37.4,12.6z"
		/>
	<path fill="#3B3B3B" d="M41,10l0.8,4.1h0.3l0.9-4.1h1.4l-1.3,5.2h-2.4L39.6,10H41z"/>
	<path fill="#3B3B3B" d="M45.6,7.9H47v1.4h-1.4V7.9z M45.6,10H47v5.2h-1.4V10z"/>
	<path fill="#3B3B3B" d="M52.7,14l0,1c0,0-1.2,0.3-2.2,0.3c-1.6,0-2.3-0.8-2.3-2.7c0-1.9,0.8-2.8,2.3-2.8c1.5,0,2.3,0.8,2.3,2.4
		l-0.1,1h-3.1c0,0.6,0.3,0.9,1.1,0.9C51.6,14.1,52.7,14,52.7,14z M51.5,12.2c0-0.9-0.2-1.1-0.9-1.1c-0.7,0-0.9,0.3-0.9,1.1H51.5z"/>
	<path fill="#3B3B3B" d="M59.6,8.1c1.4,0,2.2,0.5,2.2,1.9c0,0.8-0.2,1.2-0.8,1.6c0.6,0.3,0.9,0.7,0.9,1.6c0,1.4-0.9,2-2.3,2h-2.8
		V8.1H59.6z M58.3,9.4v1.7h1.3c0.6,0,0.8-0.3,0.8-0.9c0-0.6-0.3-0.8-0.8-0.8H58.3z M58.3,12.3V14h1.3c0.6,0,0.9-0.2,0.9-0.9
		c0-0.6-0.3-0.9-0.9-0.9H58.3z"/>
	<path fill="#3B3B3B" d="M63.4,10h1.4v0.6c0,0,0.9-0.5,1.7-0.7v1.4c-0.9,0.2-1.7,0.4-1.7,0.4v3.5h-1.4V10z"/>
	<path fill="#3B3B3B" d="M72.1,12.6c0,1.6-0.6,2.8-2.4,2.8c-1.8,0-2.4-1.1-2.4-2.8c0-1.6,0.6-2.7,2.4-2.7
		C71.5,9.9,72.1,11,72.1,12.6z M70.7,12.6c0-1-0.2-1.5-1-1.5c-0.8,0-1,0.5-1,1.5c0,1,0.2,1.6,1,1.6C70.5,14.2,70.7,13.6,70.7,12.6z"
		/>
	<path fill="#3B3B3B" d="M74.4,10l0.6,4.1h0.3l0.8-3.9h1.4l0.8,3.9h0.3l0.6-4.1h1.4l-1,5.2h-2.2L76.8,12l-0.6,3.2H74L73,10H74.4z"/>
	<path fill="#3B3B3B" d="M85.5,11.3c0,0-1.3-0.2-1.9-0.2c-0.6,0-0.7,0.1-0.7,0.4c0,0.2,0.2,0.3,1.2,0.5c1.2,0.2,1.6,0.6,1.6,1.6
		c0,1.2-0.8,1.7-2.1,1.7c-0.8,0-2-0.3-2-0.3l0-1.2c0,0,1.3,0.2,1.8,0.2c0.7,0,0.9-0.1,0.9-0.4c0-0.2-0.1-0.3-1.1-0.5
		c-1.1-0.2-1.7-0.5-1.7-1.6c0-1.2,0.9-1.7,2-1.7c0.8,0,2,0.3,2,0.3L85.5,11.3z"/>
	<path fill="#3B3B3B" d="M91.1,14l0,1c0,0-1.2,0.3-2.2,0.3c-1.6,0-2.3-0.8-2.3-2.7c0-1.9,0.8-2.8,2.3-2.8c1.5,0,2.3,0.8,2.3,2.4
		l-0.1,1h-3.1c0,0.6,0.3,0.9,1.1,0.9C90,14.1,91.1,14,91.1,14z M89.9,12.2c0-0.9-0.2-1.1-0.9-1.1c-0.7,0-0.9,0.3-0.9,1.1H89.9z"/>
	<path fill="#3B3B3B" d="M92.6,10H94v0.6c0,0,0.9-0.5,1.7-0.7v1.4c-0.9,0.2-1.7,0.4-1.7,0.4v3.5h-1.4V10z"/>
</g>
</svg>
